<svg width="24" height="24" viewBox="0 0 24 24" fill="none" xmlns="http://www.w3.org/2000/svg">
<path d="M14.0837 7.05257C15.1767 7.05257 16.0628 6.16647 16.0628 5.0734C16.0628 3.98034 15.1767 3.09424 14.0837 3.09424C12.9906 3.09424 12.1045 3.98034 12.1045 5.0734C12.1045 6.16647 12.9906 7.05257 14.0837 7.05257Z" fill="#EC6F61"/>
<path d="M5.75 13.4067C5.00832 13.4067 4.2833 13.6267 3.66661 14.0387C3.04993 14.4508 2.56928 15.0365 2.28545 15.7217C2.00162 16.4069 1.92736 17.1609 2.07206 17.8883C2.21675 18.6158 2.5739 19.2839 3.09835 19.8084C3.6228 20.3328 4.29098 20.69 5.01841 20.8347C5.74584 20.9794 6.49984 20.9051 7.18506 20.6213C7.87029 20.3375 8.45596 19.8568 8.86801 19.2401C9.28007 18.6234 9.5 17.8984 9.5 17.1567C9.5 16.1622 9.10491 15.2083 8.40165 14.5051C7.69839 13.8018 6.74456 13.4067 5.75 13.4067ZM5.75 19.2401C5.33796 19.2401 4.93517 19.1179 4.59256 18.889C4.24996 18.66 3.98294 18.3347 3.82525 17.954C3.66757 17.5733 3.62631 17.1544 3.7067 16.7503C3.78708 16.3462 3.9855 15.975 4.27686 15.6836C4.56822 15.3922 4.93944 15.1938 5.34356 15.1134C5.74769 15.0331 6.16658 15.0743 6.54726 15.232C6.92794 15.3897 7.25331 15.6567 7.48223 15.9993C7.71115 16.3419 7.83333 16.7447 7.83333 17.1567C7.83333 17.7093 7.61384 18.2392 7.22314 18.6299C6.83244 19.0206 6.30254 19.2401 5.75 19.2401Z" fill="#EC6F61"/>
<path d="M18.25 13.4067C17.5083 13.4067 16.7833 13.6267 16.1666 14.0387C15.5499 14.4508 15.0693 15.0365 14.7855 15.7217C14.5016 16.4069 14.4274 17.1609 14.5721 17.8883C14.7168 18.6158 15.0739 19.2839 15.5984 19.8084C16.1228 20.3328 16.791 20.69 17.5184 20.8347C18.2458 20.9794 18.9998 20.9051 19.6851 20.6213C20.3703 20.3375 20.956 19.8568 21.368 19.2401C21.7801 18.6234 22 17.8984 22 17.1567C22 16.1622 21.6049 15.2083 20.9017 14.5051C20.1984 13.8018 19.2446 13.4067 18.25 13.4067ZM18.25 19.2401C17.838 19.2401 17.4352 19.1179 17.0926 18.889C16.75 18.66 16.4829 18.3347 16.3253 17.954C16.1676 17.5733 16.1263 17.1544 16.2067 16.7503C16.2871 16.3462 16.4855 15.975 16.7769 15.6836C17.0682 15.3922 17.4394 15.1938 17.8436 15.1134C18.2477 15.0331 18.6666 15.0743 19.0473 15.232C19.4279 15.3897 19.7533 15.6567 19.9822 15.9993C20.2112 16.3419 20.3333 16.7447 20.3333 17.1567C20.3333 17.7093 20.1138 18.2392 19.7231 18.6299C19.3324 19.0206 18.8025 19.2401 18.25 19.2401Z" fill="#EC6F61"/>
<path d="M10.9354 11.5224L12.1445 10.1399C13.2895 10.9148 14.6412 11.3271 16.0237 11.3233H16.5837C16.9152 11.3233 17.2332 11.1916 17.4676 10.9572C17.702 10.7227 17.8337 10.4048 17.8337 10.0733C17.8337 9.74176 17.702 9.42382 17.4676 9.1894C17.2332 8.95498 16.9152 8.82328 16.5837 8.82328H16.0237C14.8468 8.82017 13.7187 8.35269 12.8845 7.52245C12.7662 7.39771 12.622 7.30039 12.4621 7.23733C12.3021 7.17427 12.1303 7.14701 11.9587 7.15745C11.7876 7.1632 11.6195 7.20404 11.4648 7.27743C11.3102 7.35083 11.1722 7.45521 11.0595 7.58411L8.14288 10.9174C8.02597 11.0515 7.93901 11.209 7.88783 11.3793C7.83664 11.5497 7.82241 11.729 7.84607 11.9053C7.86974 12.0816 7.93076 12.2508 8.02505 12.4017C8.11935 12.5525 8.24475 12.6815 8.39288 12.7799L8.94621 13.1483C9.67422 13.6391 10.2381 14.3372 10.565 15.1521C10.8919 15.967 10.9666 16.8613 10.7795 17.7191C10.7399 17.8808 10.733 18.0487 10.7591 18.2131C10.7853 18.3775 10.844 18.535 10.9319 18.6764C11.0197 18.8178 11.135 18.9402 11.2708 19.0365C11.4066 19.1327 11.5602 19.2009 11.7227 19.237C11.8852 19.273 12.0533 19.2763 12.2171 19.2465C12.3808 19.2168 12.537 19.1546 12.6764 19.0637C12.8159 18.9728 12.9357 18.8549 13.029 18.717C13.1223 18.5791 13.187 18.424 13.2195 18.2608C13.4861 17.0361 13.4143 15.7619 13.0119 14.5749C12.6095 13.3878 11.8917 12.3326 10.9354 11.5224Z" fill="#EC6F61"/>
</svg>
