<svg width="16" height="16" viewBox="0 0 16 16" fill="none" xmlns="http://www.w3.org/2000/svg">
<path d="M8.00016 10C6.7735 10 6.66683 9.42667 6.66683 9.33333H5.3335C5.3335 9.94667 5.7735 11.0333 7.3335 11.28V12H8.66683V11.28C10.0002 11.0533 10.6668 10.1933 10.6668 9.33333C10.6668 8.58667 10.3202 7.33333 8.00016 7.33333C6.66683 7.33333 6.66683 6.91333 6.66683 6.66667C6.66683 6.42 7.1335 6 8.00016 6C8.86683 6 8.92683 6.42667 8.9335 6.66667H10.2668C10.2578 6.2125 10.0945 5.77494 9.80367 5.42597C9.51286 5.077 9.11192 4.83743 8.66683 4.74667V4H7.3335V4.72667C6.00016 4.94667 5.3335 5.80667 5.3335 6.66667C5.3335 7.41333 5.68016 8.66667 8.00016 8.66667C9.3335 8.66667 9.3335 9.12 9.3335 9.33333C9.3335 9.54667 8.92016 10 8.00016 10Z" fill="#6B6B6B"/>
<path d="M3.3335 1.33325H1.3335V2.66659H2.66683V13.9999C2.66683 14.1767 2.73707 14.3463 2.86209 14.4713C2.98712 14.5963 3.15668 14.6666 3.3335 14.6666H12.6668C12.8436 14.6666 13.0132 14.5963 13.1382 14.4713C13.2633 14.3463 13.3335 14.1767 13.3335 13.9999V2.66659H14.6668V1.33325H3.3335ZM12.0002 13.3333H4.00016V2.66659H12.0002V13.3333Z" fill="#6B6B6B"/>
</svg>
