<svg width="24" height="24" viewBox="0 0 24 24" fill="none" xmlns="http://www.w3.org/2000/svg">
<path d="M20.4868 17.1402L16.4218 13.4442C16.2296 13.2696 15.9771 13.1764 15.7176 13.1845C15.4581 13.1925 15.2118 13.3011 15.0308 13.4872L12.6378 15.9482C12.0618 15.8382 10.9038 15.4772 9.71179 14.2882C8.51979 13.0952 8.15879 11.9342 8.05179 11.3622L10.5108 8.96824C10.6972 8.78737 10.8059 8.54106 10.814 8.28145C10.822 8.02183 10.7287 7.76928 10.5538 7.57724L6.85879 3.51324C6.68384 3.3206 6.44067 3.20374 6.18095 3.1875C5.92122 3.17125 5.66539 3.2569 5.46779 3.42624L3.29779 5.28724C3.1249 5.46075 3.02171 5.69169 3.00779 5.93624C2.99279 6.18624 2.70679 12.1082 7.29879 16.7022C11.3048 20.7072 16.3228 21.0002 17.7048 21.0002C17.9068 21.0002 18.0308 20.9942 18.0638 20.9922C18.3083 20.9786 18.5391 20.8749 18.7118 20.7012L20.5718 18.5302C20.7418 18.3333 20.8281 18.0776 20.8122 17.8179C20.7963 17.5582 20.6795 17.315 20.4868 17.1402Z" fill="#1077D0"/>
</svg>
