<svg width="48" height="48" viewBox="0 0 48 48" fill="none" xmlns="http://www.w3.org/2000/svg">
<rect width="48" height="48" rx="24" fill="white"/>
<circle cx="24" cy="24" r="22" fill="#EC6F61"/>
<path d="M26.9154 16.2726C28.4457 16.2726 29.6862 15.0321 29.6862 13.5018C29.6862 11.9715 28.4457 10.731 26.9154 10.731C25.3851 10.731 24.1445 11.9715 24.1445 13.5018C24.1445 15.0321 25.3851 16.2726 26.9154 16.2726Z" fill="white"/>
<path d="M15.25 25.1685C14.2116 25.1685 13.1966 25.4764 12.3333 26.0532C11.4699 26.6301 10.797 27.4501 10.3996 28.4094C10.0023 29.3687 9.89831 30.4243 10.1009 31.4427C10.3035 32.4611 10.8035 33.3965 11.5377 34.1308C12.2719 34.865 13.2074 35.365 14.2258 35.5676C15.2442 35.7702 16.2998 35.6662 17.2591 35.2688C18.2184 34.8715 19.0383 34.1986 19.6152 33.3352C20.1921 32.4718 20.5 31.4568 20.5 30.4185C20.5 29.0261 19.9469 27.6907 18.9623 26.7061C17.9777 25.7216 16.6424 25.1685 15.25 25.1685ZM15.25 33.3351C14.6731 33.3351 14.1092 33.1641 13.6296 32.8436C13.1499 32.5231 12.7761 32.0676 12.5554 31.5346C12.3346 31.0017 12.2768 30.4152 12.3894 29.8494C12.5019 29.2837 12.7797 28.764 13.1876 28.3561C13.5955 27.9482 14.1152 27.6704 14.681 27.5578C15.2468 27.4453 15.8332 27.5031 16.3662 27.7238C16.8991 27.9446 17.3546 28.3184 17.6751 28.798C17.9956 29.2777 18.1667 29.8416 18.1667 30.4185C18.1667 31.192 17.8594 31.9339 17.3124 32.4809C16.7654 33.0278 16.0235 33.3351 15.25 33.3351Z" fill="white"/>
<path d="M32.75 25.1685C31.7117 25.1685 30.6966 25.4764 29.8333 26.0532C28.9699 26.6301 28.297 27.4501 27.8996 28.4094C27.5023 29.3687 27.3983 30.4243 27.6009 31.4427C27.8035 32.4611 28.3035 33.3965 29.0377 34.1308C29.7719 34.865 30.7074 35.365 31.7258 35.5676C32.7442 35.7702 33.7998 35.6662 34.7591 35.2688C35.7184 34.8715 36.5383 34.1986 37.1152 33.3352C37.6921 32.4718 38 31.4568 38 30.4185C38 29.0261 37.4469 27.6907 36.4623 26.7061C35.4777 25.7216 34.1424 25.1685 32.75 25.1685ZM32.75 33.3351C32.1731 33.3351 31.6092 33.1641 31.1296 32.8436C30.6499 32.5231 30.2761 32.0676 30.0554 31.5346C29.8346 31.0017 29.7768 30.4152 29.8894 29.8494C30.0019 29.2837 30.2797 28.764 30.6876 28.3561C31.0955 27.9482 31.6152 27.6704 32.181 27.5578C32.7468 27.4453 33.3332 27.5031 33.8662 27.7238C34.3991 27.9446 34.8546 28.3184 35.1751 28.798C35.4956 29.2777 35.6667 29.8416 35.6667 30.4185C35.6667 31.192 35.3594 31.9339 34.8124 32.4809C34.2654 33.0278 33.5236 33.3351 32.75 33.3351Z" fill="white"/>
<path d="M22.5086 22.531L24.2014 20.5955C25.8044 21.6803 27.6967 22.2576 29.6322 22.2522H30.4162C30.8804 22.2522 31.3255 22.0678 31.6537 21.7396C31.9818 21.4114 32.1662 20.9663 32.1662 20.5022C32.1662 20.0381 31.9818 19.593 31.6537 19.2648C31.3255 18.9366 30.8804 18.7522 30.4162 18.7522H29.6322C27.9846 18.7478 26.4052 18.0934 25.2374 16.931C25.0717 16.7564 24.8699 16.6202 24.6459 16.5319C24.422 16.4436 24.1815 16.4054 23.9412 16.42C23.7017 16.4281 23.4663 16.4853 23.2498 16.588C23.0333 16.6908 22.8401 16.8369 22.6824 17.0174L18.5991 21.684C18.4354 21.8717 18.3136 22.0922 18.242 22.3307C18.1703 22.5692 18.1504 22.8202 18.1835 23.067C18.2167 23.3139 18.3021 23.5508 18.4341 23.7619C18.5661 23.9731 18.7417 24.1537 18.9491 24.2915L19.7237 24.8072C20.7429 25.4944 21.5324 26.4716 21.99 27.6125C22.4476 28.7534 22.5523 30.0054 22.2904 31.2064C22.2349 31.4327 22.2252 31.6678 22.2618 31.898C22.2985 32.1281 22.3807 32.3486 22.5037 32.5466C22.6267 32.7445 22.788 32.9159 22.9781 33.0507C23.1682 33.1854 23.3833 33.2808 23.6108 33.3314C23.8383 33.3819 24.0736 33.3864 24.3029 33.3448C24.5322 33.3031 24.7508 33.2161 24.946 33.0888C25.1412 32.9615 25.309 32.7965 25.4396 32.6034C25.5702 32.4104 25.6609 32.1933 25.7064 31.9647C26.0795 30.2501 25.979 28.4663 25.4157 26.8044C24.8523 25.1426 23.8474 23.6653 22.5086 22.531Z" fill="white"/>
</svg>