<svg width="16" height="17" viewBox="0 0 16 17" fill="none" xmlns="http://www.w3.org/2000/svg">
<path d="M13.3332 15.1665H2.6665V13.8332C2.6665 12.9491 3.01769 12.1013 3.64281 11.4761C4.26794 10.851 5.11578 10.4998 5.99984 10.4998H9.99984C10.8839 10.4998 11.7317 10.851 12.3569 11.4761C12.982 12.1013 13.3332 12.9491 13.3332 13.8332V15.1665ZM7.99984 9.1665C7.47455 9.1665 6.95441 9.06304 6.4691 8.86202C5.9838 8.661 5.54284 8.36637 5.17141 7.99493C4.79998 7.6235 4.50534 7.18254 4.30432 6.69724C4.1033 6.21194 3.99984 5.69179 3.99984 5.1665C3.99984 4.64122 4.1033 4.12107 4.30432 3.63577C4.50534 3.15047 4.79998 2.70951 5.17141 2.33808C5.54284 1.96664 5.9838 1.672 6.4691 1.47099C6.95441 1.26997 7.47455 1.1665 7.99984 1.1665C9.0607 1.1665 10.0781 1.58793 10.8283 2.33808C11.5784 3.08822 11.9998 4.10564 11.9998 5.1665C11.9998 6.22737 11.5784 7.24479 10.8283 7.99493C10.0781 8.74508 9.0607 9.1665 7.99984 9.1665Z" fill="#B2B2B2"/>
</svg>
