<svg width="36" height="36" viewBox="0 0 36 36" fill="none" xmlns="http://www.w3.org/2000/svg">
<path d="M30 4.5H6C5.20435 4.5 4.44129 4.81607 3.87868 5.37868C3.31607 5.94129 3 6.70435 3 7.5V10.5C3.00316 11.0235 3.14328 11.5371 3.40642 11.9898C3.66957 12.4424 4.04659 12.8182 4.5 13.08V28.5C4.5 29.2956 4.81607 30.0587 5.37868 30.6213C5.94129 31.1839 6.70435 31.5 7.5 31.5H28.5C29.2956 31.5 30.0587 31.1839 30.6213 30.6213C31.1839 30.0587 31.5 29.2956 31.5 28.5V13.08C31.9534 12.8182 32.3304 12.4424 32.5936 11.9898C32.8567 11.5371 32.9968 11.0235 33 10.5V7.5C33 6.70435 32.6839 5.94129 32.1213 5.37868C31.5587 4.81607 30.7956 4.5 30 4.5ZM6 7.5H30V10.5H6V7.5ZM7.5 28.5V13.5H28.5V28.5H7.5Z" fill="white"/>
<path d="M12 16.5H24V19.5H12V16.5Z" fill="white"/>
</svg>
