<svg width="48" height="48" viewBox="0 0 48 48" fill="none" xmlns="http://www.w3.org/2000/svg">
<g clip-path="url(#clip0_455_9629)">
<path d="M38.5 4H10.5C10.127 4 9.754 4.038 9.481 4.097C6.305 4.604 4 7.298 4 10.5V16.375C4 19.959 6.916 22.875 10.5 22.875C12.245 22.875 13.831 22.184 15 21.062C16.169 22.184 17.755 22.875 19.5 22.875C21.245 22.875 22.831 22.184 24 21.062C25.169 22.184 26.755 22.875 28.5 22.875C30.245 22.875 31.831 22.184 33 21.062C34.169 22.184 35.755 22.875 37.5 22.875C41.084 22.875 44 19.959 44 16.375V10.5C44 10.347 43.988 10.196 43.967 10.01C43.986 9.843 44 9.673 44 9.5C44 6.468 41.532 4 38.5 4ZM40 16.375C40 17.754 38.879 18.875 37.5 18.875C36.121 18.875 35 17.754 35 16.375V12H31V16.375C31 17.754 29.879 18.875 28.5 18.875C27.121 18.875 26 17.754 26 16.375V12H22V16.375C22 17.754 20.878 18.875 19.5 18.875C18.122 18.875 17 17.754 17 16.375V12H13V16.375C13 17.754 11.878 18.875 10.5 18.875C9.122 18.875 8 17.754 8 16.375V10.5C8 9.294 8.908 8.239 10.201 8.03C10.298 8.01 10.398 8 10.5 8H38.5C39.325 8 39.997 8.67 40 9.494C39.996 9.555 39.984 9.615 39.971 9.706L40 16.375Z" fill="white"/>
<path d="M6 26V44H42V36V32V26H38V32H22V26H18V32V36V40H10V26H6ZM22 36H38V40H22V36Z" fill="white"/>
</g>
<defs>
<clipPath id="clip0_455_9629">
<rect width="48" height="48" fill="white"/>
</clipPath>
</defs>
</svg>
