<svg width="16" height="16" viewBox="0 0 16 16" fill="none" xmlns="http://www.w3.org/2000/svg">
<path d="M13.6582 11.4267L10.9482 8.96266C10.8201 8.84623 10.6518 8.78414 10.4787 8.78948C10.3057 8.79483 10.1415 8.86721 10.0209 8.99133L8.42552 10.632C8.04152 10.5587 7.26952 10.318 6.47485 9.52533C5.68019 8.73 5.43952 7.956 5.36819 7.57466L7.00752 5.97866C7.1318 5.85808 7.20428 5.69388 7.20963 5.5208C7.21498 5.34772 7.15278 5.17936 7.03619 5.05133L4.57285 2.342C4.45622 2.21357 4.29411 2.13567 4.12096 2.12484C3.94781 2.11401 3.77725 2.1711 3.64552 2.284L2.19885 3.52466C2.0836 3.64034 2.0148 3.7943 2.00552 3.95733C1.99552 4.124 1.80485 8.072 4.86619 11.1347C7.53685 13.8047 10.8822 14 11.8035 14C11.9382 14 12.0209 13.996 12.0429 13.9947C12.2059 13.9855 12.3597 13.9164 12.4749 13.8007L13.7149 12.3533C13.8282 12.222 13.8857 12.0516 13.8751 11.8785C13.8645 11.7053 13.7867 11.5432 13.6582 11.4267Z" fill="#B2B2B2"/>
</svg>
